<?xml version="1.0" standalone="no"?>
<!DOCTYPE svg PUBLIC "-//W3C//DTD SVG 20010904//EN"
 "http://www.w3.org/TR/2001/REC-SVG-20010904/DTD/svg10.dtd">
<svg version="1.0" xmlns="http://www.w3.org/2000/svg"
 width="489.000000pt" height="480.000000pt" viewBox="0 0 489.000000 480.000000"
 preserveAspectRatio="xMidYMid meet">

<g transform="translate(0.000000,480.000000) scale(0.100000,-0.100000)"
fill="#000000" stroke="none">
<path d="M2181 3982 c-156 -438 -287 -801 -291 -805 -4 -4 -378 -17 -831 -27
-453 -11 -861 -21 -906 -22 l-81 -3 714 -484 c393 -267 714 -491 714 -499 0
-10 -405 -1259 -515 -1589 -2 -7 30 9 73 36 42 26 375 235 740 465 364 229
665 416 667 416 2 0 303 -187 667 -416 365 -230 698 -439 740 -465 43 -27 75
-43 73 -36 -110 330 -515 1579 -515 1589 0 8 321 232 714 499 l714 484 -81 3
c-45 1 -453 11 -906 22 -453 10 -827 23 -831 27 -4 4 -134 366 -290 803 -155
437 -283 796 -284 797 -1 1 -129 -357 -285 -795z m534 -202 c136 -382 251
-698 254 -702 4 -4 339 -15 746 -23 407 -9 758 -19 779 -23 l39 -7 -612 -415
c-336 -228 -611 -419 -611 -424 0 -6 88 -280 197 -611 254 -778 264 -808 250
-797 -12 10 -1208 761 -1263 794 l-31 18 -339 -213 c-186 -117 -479 -301 -650
-409 l-311 -195 32 101 c17 55 120 371 228 701 109 331 197 605 197 611 0 5
-275 196 -611 424 l-612 415 39 7 c21 4 372 14 779 23 407 8 742 19 746 23 3
4 118 321 255 704 136 384 249 696 250 695 1 -1 113 -315 249 -697z"/>
</g>
</svg>
