<?xml version="1.0" standalone="no"?>
<!DOCTYPE svg PUBLIC "-//W3C//DTD SVG 20010904//EN"
 "http://www.w3.org/TR/2001/REC-SVG-20010904/DTD/svg10.dtd">
<svg version="1.0" xmlns="http://www.w3.org/2000/svg"
 width="489.000000pt" height="480.000000pt" viewBox="0 0 489.000000 480.000000"
 preserveAspectRatio="xMidYMid meet">

<g transform="translate(0.000000,480.000000) scale(0.100000,-0.100000)"
fill="#000000" stroke="none">
<path d="M2125 3818 c-154 -468 -284 -852 -290 -853 -5 -2 -401 -13 -880 -25
-478 -11 -871 -22 -873 -24 -1 -2 304 -230 680 -506 376 -277 689 -508 696
-515 10 -9 -39 -182 -242 -856 -140 -464 -253 -846 -251 -848 2 -1 326 217
720 485 394 269 718 489 720 489 2 0 326 -220 720 -489 394 -268 718 -486 720
-485 2 2 -111 384 -251 848 -203 674 -252 847 -242 856 7 7 320 238 696 515
376 276 681 504 680 506 -2 2 -397 13 -878 25 -481 12 -878 24 -882 28 -3 3
-131 386 -284 851 -152 465 -277 846 -278 847 -1 1 -127 -381 -281 -849z"/>
</g>
</svg>
