<?xml version="1.0" standalone="no"?>
<!DOCTYPE svg PUBLIC "-//W3C//DTD SVG 20010904//EN"
 "http://www.w3.org/TR/2001/REC-SVG-20010904/DTD/svg10.dtd">
<svg version="1.0" xmlns="http://www.w3.org/2000/svg"
 width="949.000000pt" height="765.000000pt" viewBox="0 0 949.000000 765.000000"
 preserveAspectRatio="xMidYMid meet">

<g transform="translate(0.000000,765.000000) scale(0.100000,-0.100000)"
fill="#000000" stroke="none">
<path d="M0 3825 l0 -3825 4745 0 4745 0 0 3825 0 3825 -4745 0 -4745 0 0
-3825z m5180 3366 c329 -52 619 -145 902 -287 121 -61 364 -203 418 -246 l25
-20 80 87 c71 76 85 87 122 92 26 3 52 0 70 -9 29 -15 288 -212 632 -482 224
-176 243 -198 217 -259 -15 -36 -209 -277 -234 -291 -9 -5 -29 -12 -45 -15
-24 -5 -33 -15 -49 -58 l-19 -52 29 -58 c132 -261 246 -634 294 -955 32 -218
32 -593 0 -815 -26 -178 -58 -327 -101 -472 -17 -57 -31 -109 -31 -115 0 -6
34 -29 75 -50 41 -22 75 -43 75 -47 0 -3 -14 -9 -31 -13 -44 -9 -237 -8 -243
2 -2 4 16 67 40 141 104 311 144 546 151 891 7 334 -16 532 -97 835 -45 171
-137 421 -197 539 l-15 28 -34 -51 -35 -52 59 -152 c92 -235 149 -449 189
-707 25 -163 25 -586 0 -755 -24 -161 -71 -363 -119 -512 -55 -173 -71 -208
-97 -210 -27 -2 -27 -1 6 66 30 60 34 123 18 246 -8 67 -9 552 0 889 5 206 5
220 -15 260 -27 57 -50 77 -157 135 -103 56 -158 74 -282 96 -371 63 -836 -12
-1000 -161 -47 -42 -71 -81 -71 -117 0 -19 -11 -30 -47 -49 -27 -13 -58 -39
-70 -58 -21 -30 -23 -45 -23 -159 0 -80 5 -135 13 -150 6 -14 38 -38 69 -55
52 -28 58 -34 58 -63 0 -18 -3 -33 -7 -33 -5 0 -49 42 -98 95 -82 86 -94 95
-126 95 -22 0 -51 -10 -72 -25 l-37 -24 -50 82 c-27 44 -50 84 -50 88 0 4 9
10 19 14 11 3 27 17 35 31 12 18 22 23 39 18 31 -7 48 8 164 152 54 67 141
172 194 235 172 206 433 530 529 659 35 47 70 91 79 98 9 7 46 12 96 12 l81 0
159 -95 c109 -66 168 -95 189 -95 126 0 360 286 416 507 l10 41 35 -11 c33
-10 38 -8 71 24 41 39 174 211 174 224 0 5 -18 -9 -40 -30 -45 -44 -50 -40
-19 14 18 31 13 27 -38 -24 -92 -95 -101 -96 -40 -6 57 83 71 117 26 64 -13
-16 -46 -48 -74 -73 l-49 -45 23 40 c13 22 37 63 53 90 l30 50 -48 -45 c-26
-25 -56 -55 -67 -67 -10 -13 -23 -23 -28 -23 -9 0 61 121 89 153 8 9 13 17 9
17 -3 0 -36 -32 -73 -70 -37 -39 -69 -68 -72 -66 -2 3 12 31 32 62 19 32 34
60 31 62 -3 3 -27 -16 -54 -41 -47 -44 -77 -63 -53 -34 6 6 27 41 47 77 l36
65 -43 -40 c-24 -22 -56 -52 -72 -65 -27 -24 -28 -24 -17 -3 6 12 16 25 21 28
6 4 20 25 31 48 l22 41 -62 -53 c-33 -29 -61 -50 -61 -46 0 3 13 25 28 48 16
23 41 65 57 92 l28 50 -79 -77 c-44 -43 -82 -78 -86 -78 -6 0 22 54 84 160 15
26 -1 13 -61 -46 -44 -45 -81 -75 -81 -68 0 7 5 16 10 19 6 4 22 30 36 58 l26
52 -28 -25 c-16 -13 -44 -38 -63 -55 l-34 -30 20 35 c11 19 36 61 57 93 20 31
32 57 27 57 -5 0 -11 -3 -13 -7 -2 -5 -34 -37 -72 -73 l-69 -65 28 50 c15 28
41 68 58 90 17 22 35 47 41 55 21 28 -76 -58 -111 -100 -43 -50 -54 -47 -18 5
47 71 33 68 -54 -10 l-34 -30 28 50 c15 28 44 73 63 100 34 48 34 49 6 25 -16
-14 -31 -27 -34 -30 -3 -3 -30 -27 -59 -55 l-54 -50 23 40 c13 22 37 58 54 80
l31 40 -30 -22 c-16 -11 -39 -31 -50 -43 -11 -12 -28 -26 -38 -32 -15 -8 -14
-2 7 28 34 50 33 64 -1 33 -88 -78 -88 -76 -9 41 76 111 76 112 -19 20 -48
-47 -85 -78 -82 -68 3 9 31 55 62 103 31 48 54 90 51 92 -12 13 -40 -13 -146
-132 -62 -69 -118 -124 -124 -121 -6 2 -60 25 -121 51 -249 106 -443 175 -490
175 -63 0 -112 -28 -176 -99 -95 -105 -151 -222 -136 -283 7 -28 52 -86 192
-248 143 -165 203 -243 224 -291 11 -24 17 -45 13 -46 -4 -1 -19 -4 -33 -7
-27 -6 -97 -96 -124 -159 -13 -30 -12 -37 6 -66 10 -17 19 -39 19 -47 0 -15
-2 -15 -25 0 -59 39 -91 18 -209 -138 l-59 -77 15 -33 c22 -45 5 -69 -42 -59
-24 4 -36 2 -44 -9 -6 -8 -21 -20 -33 -27 -21 -11 -116 -131 -142 -178 -15
-29 -14 -59 4 -87 14 -22 11 -28 -90 -155 -58 -74 -105 -136 -105 -140 0 -4 5
-12 11 -18 8 -8 6 -18 -6 -37 -10 -15 -19 -25 -22 -23 -2 2 8 111 22 242 33
314 30 308 277 508 108 89 167 161 198 245 12 31 28 63 38 70 31 23 42 248 18
363 -19 88 -57 161 -118 225 -50 54 -154 114 -196 114 -13 0 -22 6 -22 15 0
12 -18 15 -99 15 l-100 0 -9 53 c-67 355 -108 529 -136 572 -23 35 -123 48
-315 42 -191 -6 -227 -15 -248 -64 -33 -80 -79 -283 -128 -570 l-6 -33 -93 0
c-74 0 -95 -3 -100 -15 -3 -8 -14 -15 -24 -15 -11 0 -25 -7 -32 -15 -7 -8 -20
-15 -29 -15 -28 0 -126 -85 -165 -144 -65 -98 -78 -150 -84 -333 -4 -149 -3
-165 16 -195 11 -18 22 -52 26 -75 10 -68 43 -146 95 -225 51 -78 78 -110 236
-285 55 -61 110 -131 122 -155 20 -39 31 -101 58 -341 6 -45 5 -47 -14 -35
-16 10 -19 19 -14 59 5 44 3 48 -32 80 -21 19 -99 102 -173 184 -74 83 -162
178 -195 212 -44 45 -58 66 -53 79 8 22 -59 123 -83 125 -9 1 -24 2 -33 3 -18
1 -74 50 -90 79 -6 13 -6 23 2 32 6 8 9 22 6 33 -9 28 -63 75 -88 77 -30 2
-91 106 -113 192 -21 83 -15 95 135 271 207 244 330 404 336 440 11 58 -43
150 -160 267 -97 99 -163 145 -205 145 -12 0 -83 -55 -170 -132 -299 -267
-381 -338 -389 -338 -5 0 -16 8 -25 18 -15 17 -9 25 111 132 217 196 216 194
208 238 l-6 39 153 76 c683 340 1483 397 2207 157 274 -91 545 -187 635 -224
123 -50 123 -50 96 -26 -34 29 -179 118 -286 174 -193 102 -434 190 -669 246
-708 167 -1481 65 -2115 -280 -95 -52 -181 -107 -181 -116 0 -3 11 -22 25 -42
26 -38 32 -62 16 -62 -15 0 -154 161 -216 249 -31 45 -66 88 -78 96 -37 26
-109 14 -130 -21 -4 -8 -17 -14 -27 -14 -14 0 -20 -7 -20 -24 0 -19 -6 -25
-27 -28 -22 -2 -28 -8 -26 -25 2 -19 -2 -23 -27 -23 -25 0 -30 -4 -30 -24 0
-19 -6 -25 -27 -28 -20 -2 -28 -9 -28 -23 0 -14 -8 -21 -27 -23 -22 -3 -28 -9
-28 -27 0 -18 -6 -24 -27 -27 -22 -2 -28 -8 -27 -25 0 -19 -5 -23 -28 -23 -23
0 -28 -4 -28 -25 0 -21 -5 -25 -31 -25 -28 0 -31 -3 -27 -24 4 -22 1 -25 -26
-28 -25 -2 -31 -7 -29 -25 2 -19 -2 -23 -27 -23 -25 0 -30 -4 -30 -24 0 -19
-6 -25 -27 -28 -20 -2 -29 -9 -31 -25 -2 -13 -11 -23 -25 -25 -31 -4 -54 -50
-42 -81 15 -37 356 -397 376 -397 9 0 61 39 116 88 180 160 174 156 190 139 9
-8 12 -20 8 -26 -3 -7 -75 -72 -159 -146 -154 -134 -181 -168 -193 -241 -4
-26 2 -50 27 -102 27 -54 61 -94 169 -203 253 -253 405 -325 530 -254 41 24
45 24 62 9 11 -10 39 -22 64 -29 43 -10 62 -30 317 -316 149 -167 302 -341
340 -386 74 -87 115 -111 163 -93 19 7 26 3 49 -32 30 -45 33 -70 11 -92 -8
-8 -15 -19 -15 -25 0 -6 -11 -21 -25 -33 -14 -12 -25 -25 -25 -30 0 -5 -22
-30 -50 -57 -27 -27 -50 -54 -50 -60 0 -6 -5 -11 -12 -11 -6 0 -35 -24 -62
-53 -28 -29 -59 -56 -69 -60 -11 -4 -21 -16 -24 -27 -3 -11 -10 -20 -17 -20
-6 0 -22 -11 -36 -24 -14 -14 -45 -42 -68 -63 -24 -21 -59 -53 -78 -70 -18
-18 -38 -33 -43 -33 -5 0 -12 -8 -16 -18 -3 -11 -16 -24 -29 -30 -13 -6 -27
-20 -31 -31 -3 -12 -11 -21 -16 -21 -13 0 -99 -85 -99 -98 0 -5 -11 -14 -24
-20 -13 -6 -27 -19 -30 -30 -4 -10 -17 -25 -30 -32 -14 -7 -27 -23 -30 -36 -3
-12 -15 -26 -26 -29 -11 -3 -23 -17 -26 -31 -4 -13 -15 -29 -26 -35 -10 -6
-23 -21 -28 -35 l-10 -24 -321 0 c-177 0 -320 3 -317 6 3 3 32 12 65 20 301
77 584 225 876 459 165 133 441 406 454 450 13 41 17 37 -64 55 -29 7 -53 14
-53 16 0 2 33 36 73 74 l72 71 -88 83 c-49 46 -125 110 -169 142 -171 123
-480 256 -700 301 -54 11 -88 22 -88 30 0 20 -31 31 -107 38 -65 7 -72 6 -82
-12 -9 -19 -24 -21 -163 -26 -176 -6 -242 -22 -331 -81 -80 -53 -147 -144
-147 -198 0 -30 33 -83 63 -103 14 -9 41 -19 61 -22 35 -6 36 -5 36 28 1 80
68 162 159 195 30 10 89 17 166 19 l120 4 -95 -10 c-219 -22 -299 -69 -329
-192 -13 -55 -8 -86 25 -144 21 -37 107 -103 134 -103 22 0 19 -23 -11 -82
-52 -102 -135 -317 -158 -407 -38 -152 -22 -259 42 -290 27 -12 34 -10 97 23
38 19 108 60 157 89 49 30 100 60 114 67 55 28 -8 -19 -111 -82 -194 -120
-234 -134 -289 -96 -59 39 -75 131 -46 254 16 71 73 223 138 371 l45 101 -44
17 c-24 9 -60 28 -81 42 l-37 25 -14 -21 c-8 -11 -21 -21 -28 -21 -33 0 -85
-128 -89 -218 -3 -57 -1 -64 22 -80 13 -9 33 -24 45 -32 l20 -16 -21 -67 c-11
-37 -26 -105 -33 -151 -10 -72 -9 -92 5 -152 23 -90 57 -133 152 -189 14 -9
15 -14 4 -37 -15 -34 3 -66 58 -99 51 -30 50 -29 33 -39 -23 -15 -166 -12
-178 3 -23 29 -104 253 -136 378 -95 372 -111 782 -45 1174 52 307 153 612
285 862 39 74 54 113 54 142 0 22 5 52 10 67 9 23 7 31 -9 48 -11 11 -22 18
-25 15 -2 -2 -29 -44 -59 -94 -185 -305 -312 -664 -378 -1074 -30 -181 -37
-551 -15 -761 20 -191 72 -427 132 -602 25 -73 48 -141 51 -150 5 -16 -4 -18
-93 -17 -55 1 -110 4 -124 8 -25 7 -25 7 16 37 23 16 50 34 60 40 16 10 15 19
-24 160 -48 173 -74 299 -99 474 -24 172 -24 574 0 753 59 438 223 905 424
1210 27 40 48 77 48 84 0 7 -52 68 -117 136 -135 144 -158 177 -158 232 0 69
18 90 295 337 77 69 199 178 270 243 132 118 192 158 258 170 76 15 102 1 219
-113 l109 -106 47 27 c26 16 119 64 207 107 308 151 652 248 1045 294 19 2
170 3 335 1 250 -2 323 -6 435 -24z m-282 -317 c30 -6 34 -11 52 -73 32 -104
68 -273 92 -430 l23 -144 -64 -59 c-36 -32 -94 -73 -130 -90 -59 -29 -76 -32
-156 -33 -100 0 -123 8 -189 69 -38 35 -38 36 -32 93 3 32 15 150 26 263 35
340 29 314 72 318 l36 3 -4 -93 c-2 -51 -9 -179 -14 -283 -6 -105 -10 -221
-10 -257 l0 -66 38 -13 c64 -22 146 -14 220 21 68 32 167 101 175 124 10 24
-65 424 -104 557 -18 64 -20 67 -57 73 -47 7 -317 6 -357 -3 -29 -6 -31 -10
-62 -131 -35 -138 -83 -411 -83 -470 0 -34 7 -45 74 -107 41 -39 99 -83 129
-98 l54 -29 -41 -20 c-22 -11 -62 -43 -88 -70 -53 -55 -53 -55 -33 29 23 95
22 100 -55 183 -49 53 -70 84 -70 101 0 73 68 421 111 563 l19 67 58 6 c31 3
64 8 72 10 20 5 256 -4 298 -11z m-2094 -83 c33 -27 77 -66 96 -87 l35 -37
-40 23 c-96 56 -179 126 -169 142 8 13 13 11 78 -41z m-7 -91 c51 -40 91 -76
88 -78 -2 -3 -38 15 -79 38 -82 47 -142 102 -131 120 8 13 0 18 122 -80z m-60
-46 c52 -42 92 -79 89 -81 -12 -12 -200 116 -210 143 -13 33 33 9 121 -62z
m-65 -44 c108 -87 118 -102 39 -60 -63 34 -151 104 -151 121 0 21 30 5 112
-61z m920 0 c52 -35 71 -55 66 -70 -2 -6 -35 11 -75 37 -66 42 -82 63 -49 63
7 0 33 -14 58 -30z m-1039 -2 c59 -40 168 -131 163 -135 -7 -7 -124 63 -173
104 -63 51 -54 76 10 31z m440 9 c-8 -14 -164 -157 -558 -511 -36 -32 -68 -57
-71 -54 -5 5 121 124 316 299 47 42 136 122 197 178 109 98 133 116 116 88z
m2771 -49 c-33 -35 -74 -81 -92 -103 -30 -37 -32 -37 -21 -10 21 50 79 124
117 150 60 41 59 29 -4 -37z m326 -16 c69 -27 145 -59 170 -70 l45 -19 -41
-13 c-38 -11 -46 -10 -80 9 -55 29 -205 91 -224 91 -8 0 -35 -17 -59 -38 l-44
-38 86 -52 c48 -30 90 -58 93 -64 4 -5 -7 -24 -24 -41 l-31 -31 -115 78 c-64
42 -118 82 -122 87 -8 13 60 94 110 131 53 38 74 36 236 -30z m-3020 30 c0 -4
-22 -30 -50 -57 -27 -26 -47 -52 -44 -57 3 -4 -1 -5 -8 -3 -8 3 -31 -13 -53
-35 -35 -36 -39 -58 -5 -27 8 6 6 2 -5 -11 -14 -17 -21 -19 -26 -10 -7 11 -40
-13 -109 -82 -3 -3 -54 -50 -115 -104 -174 -157 -245 -227 -239 -237 3 -5 1
-9 -4 -9 -10 0 -256 246 -292 293 -12 15 -17 27 -11 27 13 0 79 -64 197 -191
l81 -87 214 197 c423 386 469 424 469 393z m-527 -56 c40 -29 83 -66 97 -81
l25 -27 -45 22 c-68 34 -170 109 -170 126 0 24 18 16 93 -40z m991 10 c35 -25
89 -77 121 -118 88 -109 87 -110 -7 -21 -70 66 -122 106 -207 159 -6 5 10 24
21 24 6 0 38 -20 72 -44z m-1043 -62 c79 -58 130 -104 113 -104 -30 0 -214
130 -214 152 0 18 26 5 101 -48z m936 39 c2 -5 -43 -50 -99 -100 -57 -49 -184
-160 -283 -247 -98 -87 -194 -170 -212 -185 -18 -14 -33 -29 -33 -32 0 -11 82
-41 89 -32 3 5 33 33 66 63 33 29 132 121 219 204 88 83 174 164 190 180 17
16 50 46 73 68 l41 41 41 -29 c22 -16 41 -32 41 -35 0 -4 -19 -24 -42 -44 -24
-21 -110 -102 -193 -180 -82 -78 -199 -186 -258 -240 l-108 -98 23 -26 c13
-14 53 -58 89 -97 62 -67 157 -209 147 -219 -3 -3 -22 21 -44 52 -92 135 -280
305 -398 359 -32 14 -54 30 -49 34 4 4 80 67 168 141 88 73 178 150 200 170
100 93 311 268 319 266 6 -2 11 -8 13 -14z m-1022 -67 c28 -18 73 -54 100 -80
41 -38 45 -44 23 -36 -62 22 -203 125 -193 141 9 14 17 11 70 -25z m4336 -79
c90 -62 223 -155 294 -207 72 -51 166 -119 211 -151 82 -59 111 -85 102 -95
-3 -3 -41 21 -84 54 -118 88 -338 243 -532 376 -95 65 -175 122 -178 127 -18
29 43 -5 187 -104z m-4407 41 c50 -35 165 -132 161 -136 -8 -8 -128 63 -170
100 -64 57 -58 81 9 36z m4143 -27 c162 -79 422 -243 650 -409 l63 -46 -31
-18 -30 -18 -42 34 c-112 90 -535 351 -691 426 -82 38 -145 53 -130 29 4 -7 0
-9 -12 -5 -33 10 -137 -47 -200 -110 -64 -64 -87 -112 -104 -219 l-9 -60 3 76
c3 93 36 169 98 230 63 62 227 135 309 138 14 1 71 -21 126 -48z m-4204 -23
c58 -41 167 -131 163 -136 -9 -8 -127 62 -171 100 -64 57 -58 82 8 36z m16
-108 c56 -44 101 -83 101 -86 0 -9 -110 55 -167 97 -48 36 -69 69 -44 69 6 0
55 -36 110 -80z m3418 25 c0 -8 -4 -12 -9 -9 -4 3 -8 9 -8 15 0 5 4 9 8 9 5 0
9 -7 9 -15z m728 -176 c83 -51 239 -153 348 -227 l199 -134 26 24 26 23 -24
-35 c-35 -52 -63 -81 -69 -71 -3 4 -98 69 -211 144 -410 272 -477 322 -511
389 l-21 40 44 -30 c24 -16 111 -72 193 -123z m-3537 76 c-3 -3 -9 2 -12 12
-6 14 -5 15 5 6 7 -7 10 -15 7 -18z m1182 -1 c0 -16 -16 -19 -25 -4 -8 13 4
32 16 25 5 -4 9 -13 9 -21z m1289 12 c10 -12 8 -16 -10 -21 -13 -5 -25 -2 -30
6 -17 28 19 41 40 15z m-2506 -30 c3 -8 -7 -28 -23 -44 -28 -29 -29 -30 -45
-12 -16 18 -16 20 11 44 33 29 49 32 57 12z m1153 -1 c4 -8 3 -23 0 -32 -6
-15 -8 -15 -23 -1 -16 17 -12 48 7 48 6 0 13 -7 16 -15z m1430 3 c7 -10 -20
-38 -38 -38 -10 0 -11 34 -1 43 10 11 31 8 39 -5z m390 -40 l29 -33 -32 29
c-31 28 -38 36 -30 36 2 0 16 -15 33 -32z m-1876 -24 c0 -24 -2 -25 -17 -13
-10 7 -20 14 -22 16 -8 5 11 23 25 23 8 0 14 -10 14 -26z m1546 15 c3 -6 2
-15 -3 -20 -14 -14 -43 0 -36 17 6 17 29 19 39 3z m-1586 -81 c0 -12 -14 -10
-35 5 -10 8 -15 19 -11 26 6 9 13 8 27 -5 10 -9 19 -21 19 -26z m1640 22 c10
-19 9 -20 -17 -15 -21 5 -25 4 -13 -4 8 -6 10 -11 4 -11 -18 0 -24 12 -13 31
13 25 26 24 39 -1z m-1235 -432 c0 -278 5 -501 13 -598 24 -281 61 -624 97
-902 45 -338 51 -396 37 -383 -27 27 -132 862 -162 1285 -18 262 -23 655 -11
825 10 143 19 215 25 215 1 0 2 -199 1 -442z m-69 370 c-27 -261 -29 -597 -5
-942 5 -76 8 -141 5 -143 -7 -7 -271 293 -311 353 -49 73 -84 160 -92 223 -5
42 -3 50 14 60 18 9 21 23 25 138 4 104 10 139 29 186 46 113 153 184 278 186
l64 1 -7 -62z m845 -118 c22 -308 0 -842 -56 -1335 -39 -344 -83 -636 -97
-650 -13 -12 -6 76 27 350 76 621 98 951 98 1418 0 219 3 395 8 390 4 -4 13
-82 20 -173z m211 163 c58 -29 68 -33 78 -33 22 0 90 -85 111 -138 17 -45 23
-86 27 -189 2 -73 9 -133 13 -133 16 0 9 -50 -12 -93 -35 -67 -68 -104 -169
-185 -52 -42 -122 -101 -154 -132 -57 -53 -59 -54 -53 -25 4 17 10 147 13 290
6 236 -4 496 -23 618 l-6 37 71 0 c46 0 82 -6 104 -17z m-1424 -79 c-12 -11
-48 17 -48 39 0 21 1 21 27 -5 15 -15 24 -30 21 -34z m1702 35 c0 -15 -30 -38
-49 -39 -10 0 -7 8 9 25 25 27 40 32 40 14z m-801 -58 c95 -49 142 -156 110
-252 -63 -188 -339 -192 -394 -5 -18 59 -18 78 -4 129 32 115 182 182 288 128z
m-938 -17 c12 -14 11 -16 -5 -13 -11 2 -21 10 -24 17 -5 17 13 15 29 -4z
m1758 -8 c-2 -2 -15 -7 -29 -10 l-25 -7 25 20 c14 11 27 15 29 10 1 -6 1 -12
0 -13z m-1774 -64 c-7 -8 -35 7 -35 18 0 6 7 6 20 -2 10 -7 17 -14 15 -16z
m3295 24 c0 -2 -12 -12 -27 -21 l-28 -18 19 21 c17 20 36 29 36 18z m-4415
-42 c40 -20 86 -47 101 -59 32 -25 27 -37 -27 -75 l-27 -20 -96 50 c-53 28
-103 50 -111 50 -8 0 -15 3 -15 7 0 9 82 82 93 83 4 0 41 -16 82 -36z m2890
16 c-3 -5 -16 -10 -28 -10 -18 0 -19 2 -7 10 20 13 43 13 35 0z m484 -89 c26
-40 41 -76 41 -95 0 -67 -74 -179 -285 -436 -48 -58 -94 -117 -102 -131 -8
-14 -24 -31 -36 -38 -17 -11 -24 -9 -55 22 -37 38 -36 57 5 57 30 0 49 20 163
166 46 60 107 135 135 166 29 32 64 83 79 113 26 53 27 59 18 138 -6 45 -13
91 -17 102 -12 32 8 8 54 -64z m-2259 27 c0 -5 -9 -4 -20 2 -11 6 -20 12 -20
14 0 2 9 2 20 -1 11 -3 20 -9 20 -15z m1767 -4 c-3 -3 -12 -4 -19 -1 -8 3 -5
6 6 6 11 1 17 -2 13 -5z m1533 -13 c0 -5 -7 -14 -15 -21 -8 -7 -12 -16 -9 -21
3 -5 -1 -6 -9 -3 -23 8 -121 -105 -195 -225 -19 -31 -31 -45 -27 -31 22 75
112 208 185 274 38 34 70 47 70 27z m-3312 -110 c-4 -102 -22 -98 -26 6 -2 72
-1 82 13 77 13 -5 15 -21 13 -83z m1782 4 c0 -50 -4 -85 -10 -85 -11 0 -14
152 -3 163 12 13 13 7 13 -78z m-3040 41 c0 -2 -22 -23 -49 -45 -46 -38 -49
-40 -54 -20 -8 30 33 69 73 69 16 0 30 -2 30 -4z m3424 -35 c8 -13 -4 -41 -18
-41 -12 0 -66 -72 -66 -89 0 -16 -20 -13 -26 4 -8 20 67 134 88 134 9 1 19 -3
22 -8z m-3328 -22 c3 -6 -21 -39 -57 -75 -48 -49 -66 -61 -76 -52 -24 19 -14
37 50 87 67 54 72 57 83 40z m1860 -113 c20 -20 63 -50 97 -68 62 -31 65 -50
6 -29 -17 6 -36 8 -42 4 -11 -7 -2 -1132 12 -1369 7 -120 11 -147 30 -178 38
-61 79 -71 137 -35 42 26 44 10 3 -30 -47 -47 -74 -50 -114 -11 -42 41 -100
157 -114 230 -31 159 -49 467 -56 990 -6 335 -11 469 -21 510 -8 30 -14 66
-14 80 0 22 3 19 21 -17 11 -22 36 -57 55 -77z m-1761 33 c7 -10 -130 -149
-147 -149 -5 0 -12 8 -15 17 -5 12 12 34 63 80 69 63 87 72 99 52z m90 -79 c8
-12 -122 -150 -141 -150 -35 0 -22 28 43 91 70 69 86 78 98 59z m83 -109 c-37
-50 -122 -129 -134 -124 -26 10 -14 32 52 98 53 51 70 63 81 54 10 -9 11 -15
1 -28z m2858 28 c4 -7 -1 -16 -10 -21 -15 -8 -79 -88 -117 -144 -14 -21 -18
-23 -29 -10 -10 13 -1 30 55 101 64 82 86 98 101 74z m-2242 -91 c9 -15 6 -23
-17 -43 -15 -14 -27 -36 -27 -49 0 -33 141 -220 188 -250 21 -13 51 -39 66
-58 16 -18 70 -80 121 -138 51 -58 118 -134 149 -169 47 -54 69 -91 52 -91 -2
0 -11 -2 -18 -5 -12 -5 -107 94 -248 260 -14 16 -35 39 -47 52 -59 62 -272
322 -287 350 -22 43 -20 91 4 131 22 36 45 39 64 10z m-577 -86 c-55 -54 -57
-56 -74 -38 -17 17 -15 20 47 77 61 56 66 58 74 39 8 -18 1 -30 -47 -78z m111
-34 c-3 -22 -51 -58 -63 -47 -7 7 45 69 58 69 5 0 7 -10 5 -22z m638 -153
c-19 -28 -38 -24 -57 12 -12 23 -11 27 10 44 23 19 23 19 43 -6 19 -24 19 -27
4 -50z m1884 16 c56 -42 130 -125 130 -146 0 -4 -29 19 -65 51 -36 31 -68 54
-72 51 -3 -4 0 -13 6 -21 7 -8 11 -24 9 -35 -3 -17 -94 -133 -276 -349 l-62
-74 21 -29 c29 -41 12 -36 -44 14 l-47 42 97 117 c54 64 135 160 181 213 89
104 99 132 62 175 -21 24 -26 40 -12 40 4 0 36 -22 72 -49z m-112 -3 c14 -14
16 -32 3 -23 -9 5 -96 -101 -108 -131 -6 -17 -23 -9 -23 11 0 16 98 155 109
155 4 0 12 -5 19 -12z m-2683 -238 c4 -6 -15 -10 -49 -10 -31 0 -56 5 -56 10
0 6 22 10 49 10 28 0 53 -4 56 -10z m3945 -45 c99 -16 196 -42 218 -58 33 -25
-59 -67 -208 -95 -58 -11 -211 -37 -340 -57 -307 -48 -356 -59 -394 -86 -23
-17 -27 -18 -16 -4 36 45 133 70 446 115 277 40 379 64 405 96 11 13 -1 14
-102 8 -100 -5 -130 -3 -242 20 -156 32 -259 33 -399 6 -115 -22 -137 -24
-122 -11 14 13 162 50 261 65 122 19 376 20 493 1z m-3935 -13 c125 -10 244
-40 402 -103 95 -37 284 -135 342 -177 39 -28 41 -31 23 -41 -16 -9 -32 -3
-86 34 -80 54 -288 156 -376 185 -216 70 -396 97 -599 87 -137 -7 -190 -15
-171 -27 7 -5 2 -9 -14 -12 -14 -3 -23 -2 -21 3 3 4 -4 5 -15 2 -11 -3 -18 -9
-15 -13 3 -4 -2 -11 -11 -14 -8 -3 -12 -2 -9 4 12 19 -12 10 -51 -19 -52 -37
-70 -59 -89 -105 -11 -26 -20 -35 -26 -29 -16 16 13 75 60 126 46 50 130 92
212 106 59 10 256 7 444 -7z m-565 -85 c0 -2 -15 -13 -32 -26 l-33 -22 28 25
c26 24 37 31 37 23z m4841 -26 c74 -46 79 -66 79 -309 l0 -210 -31 -26 c-46
-39 -55 -34 -53 29 1 34 -2 55 -9 55 -7 0 -7 4 1 12 19 19 14 38 -10 39 -13 0
-17 3 -10 6 7 2 17 14 23 25 11 20 9 21 -25 15 -42 -7 -40 5 4 23 46 19 37 33
-17 26 l-48 -6 48 26 c27 14 47 27 44 30 -2 3 -43 -6 -90 -20 -108 -31 -262
-54 -392 -58 -117 -3 -529 10 -565 19 -29 7 -183 83 -178 88 2 2 52 -14 111
-36 121 -44 156 -47 212 -19 36 18 59 20 280 20 315 0 483 23 595 80 78 40 95
97 45 150 -38 39 -56 39 -49 0 4 -19 1 -38 -10 -55 -20 -30 -42 -35 -26 -6 5
11 10 27 10 36 0 16 -2 16 -26 0 -41 -27 -129 -54 -197 -60 l-62 -6 92 25 c50
13 102 30 115 36 36 19 68 52 68 70 0 38 14 38 71 1z m-783 -37 c-2 -1 -58
-15 -123 -29 -66 -14 -144 -35 -173 -46 -45 -19 -56 -20 -83 -9 l-30 13 42 19
c66 29 138 47 219 56 69 6 156 5 148 -4z m-3240 -20 c68 -27 181 -89 217 -119
11 -9 4 -7 -15 5 -31 19 -191 98 -260 128 -51 22 -6 11 58 -14z m-323 -25
c200 -23 385 -94 385 -149 0 -24 -43 -58 -84 -66 -28 -5 -38 -1 -65 26 -35 36
-41 36 -184 4 -55 -13 -72 -21 -85 -44 -14 -22 -20 -25 -34 -17 -12 8 -24 7
-43 -3 -15 -8 -40 -13 -55 -12 -15 2 -31 -1 -35 -7 -11 -20 -135 -13 -179 9
-76 38 -106 115 -67 177 24 38 87 82 133 94 36 9 172 3 313 -12z m4345 -15 c0
-60 -199 -120 -430 -129 l-125 -4 115 14 c239 31 368 64 405 105 17 19 35 26
35 14z m-385 -44 c-22 -5 -92 -16 -155 -24 -138 -19 -356 -54 -424 -67 -27 -5
-51 -7 -54 -4 -15 15 120 40 432 80 188 24 278 30 201 15z m-2551 -24 c-5 -12
-26 -31 -111 -99 -21 -17 -23 -17 -23 -1 0 28 94 106 137 114 1 0 0 -6 -3 -14z
m1072 -40 c21 -19 36 -37 32 -41 -9 -9 -99 55 -92 66 9 15 19 10 60 -25z m504
-4 c0 -5 -9 -17 -20 -27 -37 -33 -23 -65 35 -80 28 -8 29 -9 6 -13 -37 -6 -90
7 -111 28 -23 23 -16 53 18 80 25 20 72 27 72 12z m-1556 -61 c-21 -16 -41
-27 -44 -24 -8 8 49 53 67 53 10 0 1 -12 -23 -29z m-546 -4 c-33 -26 -177
-102 -183 -95 -5 5 185 117 200 117 6 0 -2 -10 -17 -22z m1539 -55 c14 -26 48
-84 75 -128 47 -80 56 -104 40 -104 -10 0 -151 240 -159 271 -9 35 13 15 44
-39z m-942 21 c-16 -8 -38 -22 -48 -31 -24 -22 -33 -7 -13 23 13 19 25 25 54
25 l37 -1 -30 -16z m-1304 -8 c0 -9 -44 -22 -135 -39 -29 -6 -36 -4 -36 8 0 9
10 18 23 21 86 20 105 23 125 22 12 -1 23 -6 23 -12z m719 -25 c-24 -18 -131
-68 -117 -54 12 12 122 73 132 73 6 0 -1 -8 -15 -19z m-537 -26 c48 -15 87
-31 87 -35 0 -4 -21 -15 -47 -25 -27 -10 -79 -30 -118 -45 -102 -39 -226 -77
-324 -99 -93 -20 -320 -37 -286 -21 11 5 111 38 222 73 111 35 200 65 198 66
-2 2 -59 -3 -127 -12 -68 -8 -162 -18 -210 -22 -85 -7 -87 -6 -81 15 3 12 10
24 15 27 21 13 237 34 293 29 87 -9 247 29 259 61 7 19 18 18 119 -12z m1160
19 c4 -3 -12 -15 -35 -25 -48 -22 -58 -18 -29 11 21 21 51 27 64 14z m-604
-47 c-10 -9 -69 -36 -69 -32 0 7 52 35 64 36 5 0 7 -2 5 -4z m625 -37 c8 -9 5
-10 -14 -5 -14 3 -37 6 -52 6 -16 0 -28 5 -28 11 0 15 78 5 94 -12z m806 -19
c0 -5 -4 -10 -10 -10 -5 0 -10 5 -10 10 0 6 5 10 10 10 6 0 10 -4 10 -10z
m-2884 -51 c-36 -81 -67 -170 -61 -178 8 -14 -9 -21 -25 -11 -11 7 -12 16 -3
43 7 25 7 39 0 46 -7 7 -3 18 16 35 29 27 33 41 17 51 -17 11 -11 27 8 21 14
-5 22 1 31 20 8 18 15 24 22 17 7 -7 5 -21 -5 -44z m2035 21 l24 -19 -42 -1
c-44 0 -65 16 -42 31 21 13 35 11 60 -11z m879 -26 c0 -8 -4 -14 -10 -14 -5 0
-10 9 -10 21 0 11 5 17 10 14 6 -3 10 -13 10 -21z m-904 -46 c16 -18 17 -20 2
-15 -9 3 -33 9 -52 13 -41 7 -39 24 3 24 16 0 36 -9 47 -22z m-517 -24 c-37
-38 -115 -100 -164 -129 -23 -14 -27 -15 -15 -3 21 23 202 168 208 168 3 0
-10 -16 -29 -36z m1433 -71 c28 -29 30 -34 19 -64 -27 -78 -8 -138 74 -240 30
-37 55 -70 55 -73 0 -4 -11 -6 -24 -6 -19 0 -34 14 -63 55 -40 57 -45 60 -135
70 -67 8 -64 0 -43 129 8 50 19 124 26 164 l11 72 25 -37 c14 -21 39 -52 55
-70z m460 0 c112 -115 456 -484 575 -617 69 -77 99 -123 51 -79 -13 12 -48 33
-78 47 -62 28 -90 48 -90 64 0 6 -19 26 -42 44 -24 19 -44 39 -46 46 -3 15
-75 86 -109 109 -13 8 -21 18 -18 22 2 4 -68 81 -155 171 -88 91 -160 168
-160 172 0 4 -14 15 -30 23 -17 9 -28 20 -25 25 3 6 -7 15 -22 22 -39 17 -38
16 -18 38 34 37 56 26 167 -87z m-2162 88 c-8 -5 -59 -25 -113 -45 -184 -69
-438 -124 -672 -146 -108 -10 -302 -14 -294 -6 2 2 72 9 154 15 279 21 507 63
760 140 163 50 191 57 165 42z m1720 -1 c0 -5 -2 -10 -4 -10 -3 0 -8 5 -11 10
-3 6 -1 10 4 10 6 0 11 -4 11 -10z m-775 -169 c14 -83 25 -155 25 -159 0 -5
-31 -13 -69 -19 -63 -10 -73 -15 -108 -54 -21 -23 -44 -48 -51 -56 -9 -8 -37
-13 -80 -13 l-67 1 -167 -173 c-92 -95 -168 -179 -168 -186 0 -7 11 -35 25
-62 14 -27 25 -54 25 -60 0 -13 -326 -14 -334 -1 -3 5 5 16 19 25 14 9 25 23
25 31 0 7 9 17 21 20 11 4 25 18 31 31 6 13 15 24 19 24 7 0 49 38 154 140 12
11 26 20 32 20 6 0 18 11 27 25 9 14 23 25 31 25 9 0 20 11 25 25 5 14 15 25
22 25 12 0 34 18 86 73 15 15 30 27 34 27 5 0 28 20 52 45 25 25 48 45 51 45
5 0 73 68 215 215 11 12 20 26 20 32 0 7 9 18 19 25 11 8 27 30 37 51 10 20
19 35 21 33 2 -1 14 -71 28 -155z m-593 111 c-44 -55 -250 -245 -377 -347
-125 -100 -285 -208 -425 -285 -98 -54 -306 -143 -323 -137 -5 1 41 25 102 51
218 95 443 235 654 406 131 106 141 115 289 257 53 51 100 93 103 93 4 0 -7
-17 -23 -38z m373 22 c13 -8 26 -21 29 -29 4 -11 -2 -11 -32 2 -50 21 -53 23
-47 34 9 13 22 11 50 -7z m1755 -17 c76 -30 192 -60 305 -79 120 -19 495 -16
613 5 110 20 144 20 82 1 -201 -64 -636 -60 -877 7 -61 17 -197 79 -213 96 -6
7 1 5 90 -30z m-560 16 c0 -13 -74 -83 -87 -83 -25 0 -13 39 20 64 30 24 67
35 67 19z m1800 -232 l0 -230 -31 11 c-29 10 -30 11 -12 31 18 20 18 20 -24
13 -24 -3 -43 -4 -43 -1 0 2 18 14 40 25 52 26 51 39 -2 34 -24 -2 -36 -1 -28
2 27 12 70 45 70 54 0 5 -15 4 -32 -1 -53 -15 -66 -10 -27 11 37 19 69 50 52
50 -6 0 -24 -5 -42 -11 -49 -17 -47 -4 4 25 58 35 58 48 -2 30 -69 -21 -74
-17 -16 16 62 35 79 56 38 46 -15 -4 -41 -9 -59 -12 -26 -4 -23 -1 22 23 28
15 52 31 52 36 0 5 -6 7 -14 4 -7 -3 -35 -8 -62 -12 l-49 -7 75 46 c41 25 78
45 83 45 4 1 7 -102 7 -228z m-3038 172 c30 -36 27 -40 -17 -20 -25 12 -45 24
-45 29 0 15 47 8 62 -9z m1274 -4 c7 -12 -44 -69 -63 -69 -7 0 -17 9 -23 20
-9 17 -6 23 22 40 37 22 54 25 64 9z m-1322 -56 c14 -14 25 -27 23 -29 -6 -6
-87 38 -87 47 0 19 38 8 64 -18z m1363 1 c5 -15 -32 -64 -49 -64 -17 0 -38 28
-32 43 5 15 40 35 62 36 7 1 15 -6 19 -15z m-1423 -45 c40 -32 31 -41 -19 -17
-24 12 -42 25 -39 30 9 14 30 9 58 -13z m1463 3 c8 -5 3 -18 -17 -42 -27 -33
-30 -34 -46 -18 -17 17 -17 19 6 43 24 26 37 30 57 17z m-1520 -56 c15 -13 25
-27 22 -31 -8 -7 -79 34 -79 46 0 17 29 9 57 -15z m1562 10 c14 -16 4 -43 -24
-66 -14 -11 -19 -10 -36 7 l-21 20 28 27 c33 30 37 31 53 12z m-2619 -15 c-8
-4 -96 -51 -195 -103 -99 -52 -223 -121 -275 -152 -52 -31 -103 -56 -114 -56
-17 0 -18 5 -13 63 9 87 32 148 72 187 l35 34 158 8 c86 5 191 12 232 17 107
12 118 12 100 2z m1008 -44 c6 -5 12 -16 12 -23 0 -11 -9 -10 -42 7 -29 15
-37 23 -28 29 14 9 36 4 58 -13z m1648 7 c-4 -11 -2 -15 8 -11 22 9 27 -4 11
-30 -9 -13 -11 -23 -6 -23 5 0 13 5 16 10 12 19 38 11 32 -10 -5 -19 -1 -22
32 -24 25 -2 22 -21 -9 -51 l-30 -28 -35 36 c-21 21 -33 42 -29 49 5 7 3 8 -6
3 -18 -11 -31 16 -17 35 11 13 10 13 -6 1 -9 -8 -21 -11 -24 -7 -11 10 10 39
38 53 31 16 32 16 25 -3z m-1701 -64 c24 -27 12 -37 -19 -16 -14 9 -32 16 -41
16 -8 0 -15 5 -15 10 0 18 56 10 75 -10z m-49 -57 c9 -14 12 -23 7 -21 -4 2
-26 12 -47 22 -27 12 -35 20 -27 26 20 12 48 0 67 -27z m2275 -47 c22 -23 52
-63 65 -89 24 -46 21 -44 -81 57 -58 58 -105 108 -105 111 0 13 82 -41 121
-79z m-1231 53 c287 -2 274 -10 -45 -29 -115 -6 -246 -16 -290 -22 -44 -5
-122 -12 -174 -15 l-93 -4 27 35 c14 19 36 37 48 40 12 2 78 3 147 0 69 -2
240 -5 380 -5z m-1110 -41 c31 -33 24 -39 -19 -15 -22 12 -37 25 -35 29 9 15
33 8 54 -14z m1950 12 c0 -5 5 -10 11 -10 5 0 7 5 4 10 -9 15 1 12 14 -4 10
-11 6 -20 -16 -40 -33 -31 -43 -32 -65 -6 -16 18 -16 20 9 40 28 22 43 25 43
10z m-2675 -29 c-18 -17 -210 -116 -306 -159 -212 -92 -407 -118 -479 -62
l-25 19 40 -14 c123 -44 350 15 660 169 116 58 125 62 110 47z m672 -25 c37
-32 28 -37 -26 -14 -33 15 -40 22 -30 29 20 13 25 11 56 -15z m2058 -6 c3 -5
12 -7 20 -3 24 9 17 -11 -13 -40 -34 -32 -43 -33 -60 -6 -11 18 -11 24 4 40
19 21 39 25 49 9z m1360 -29 c22 -10 47 -26 55 -36 12 -15 9 -14 -25 4 -124
66 -264 -40 -299 -227 l-13 -67 -11 38 c-27 95 39 243 125 280 78 33 111 34
168 8z m-3474 -10 c13 -11 21 -22 18 -25 -9 -10 -80 24 -74 34 9 15 31 12 56
-9z m1755 -63 c32 -40 75 -94 96 -120 21 -26 38 -50 38 -55 0 -4 -107 -6 -237
-5 -131 2 -389 -1 -573 -7 -184 -6 -464 -13 -622 -14 -276 -3 -286 -2 -273 16
7 10 65 72 129 137 l117 120 634 0 634 0 57 -72z m412 -4 l-26 -26 -22 22 -23
23 28 24 28 25 21 -21 20 -21 -26 -26z m-2221 12 c37 -32 28 -37 -26 -14 -33
15 -40 22 -30 29 20 13 25 11 56 -15z m2278 -6 c3 -6 -1 -13 -9 -16 -9 -3 -16
-10 -16 -15 0 -5 9 -4 20 3 15 10 22 10 32 0 9 -9 7 -17 -12 -37 -28 -30 -46
-32 -55 -5 -3 11 -13 20 -21 20 -22 0 -17 16 14 39 31 23 38 25 47 11z m-2329
-44 c10 -8 16 -17 12 -21 -9 -9 -78 14 -78 26 0 14 44 11 66 -5z m3584 -11
c63 -33 83 -137 40 -213 -24 -43 -55 -62 -98 -62 -114 2 -154 171 -60 256 40
37 73 42 118 19z m-1184 -19 c6 -15 -24 -65 -38 -66 -5 0 -16 9 -27 19 -18 18
-18 19 2 40 25 24 55 27 63 7z m-2472 -16 c14 -5 26 -16 26 -24 0 -12 -7 -12
-37 -3 -48 14 -51 16 -33 27 18 12 14 12 44 0z m2509 -67 c-23 -32 -41 -35
-57 -10 -9 15 -6 23 18 43 26 23 30 24 44 10 15 -14 14 -18 -5 -43z m792 49
c-2 -2 -38 -10 -81 -17 -131 -24 -377 -16 -406 13 -4 4 105 7 242 7 136 0 247
-1 245 -3z m-3343 -49 c27 -25 22 -33 -14 -22 -18 6 -40 13 -48 15 -13 5 -13
6 0 14 22 14 41 12 62 -7z m2598 -1 c0 -5 -13 -21 -29 -36 -21 -20 -31 -24
-37 -15 -4 8 3 21 20 36 28 23 46 30 46 15z m130 -7 c0 -2 -17 -13 -37 -24
-21 -11 -53 -34 -71 -52 -24 -24 -36 -29 -44 -21 -8 8 0 23 34 57 37 37 52 45
82 45 20 0 36 -2 36 -5z m-2779 -55 l24 -21 -45 7 c-53 7 -60 12 -40 24 22 14
35 12 61 -10z m2164 -40 c-3 -5 -12 -10 -20 -10 -7 0 -15 -6 -17 -12 -3 -9
-10 -7 -23 6 -18 18 -19 18 -36 -3 -21 -26 -25 -26 -32 -1 -3 11 -10 20 -17
20 -7 0 -14 -9 -17 -20 -7 -26 -20 -25 -44 3 -19 22 -26 19 -43 -18 -3 -5 -10
-2 -16 8 -15 24 -39 21 -50 -5 l-9 -23 -7 23 c-7 26 -54 32 -54 7 0 -8 -4 -15
-9 -15 -5 0 -11 7 -15 15 -8 22 -35 18 -45 -7 l-8 -22 -12 22 c-14 26 -36 28
-50 5 -6 -11 -11 -13 -11 -5 0 7 -4 10 -10 7 -5 -3 -10 -1 -10 4 0 20 -31 11
-40 -11 l-9 -23 -7 23 c-4 14 -14 22 -29 22 -15 0 -25 -8 -29 -22 l-7 -23 -9
23 c-12 28 -50 30 -50 2 0 -11 -4 -20 -10 -20 -5 0 -10 7 -10 15 0 8 -8 19
-19 24 -14 8 -23 5 -40 -10 -17 -16 -21 -17 -21 -4 0 26 -40 19 -41 -7 l0 -23
-16 23 c-17 25 -53 30 -53 8 0 -24 -21 -30 -27 -7 -7 29 -43 28 -43 0 0 -21
-1 -21 -25 5 -24 26 -26 26 -50 10 -15 -10 -25 -12 -25 -5 0 6 -9 11 -20 11
-11 0 -20 -7 -20 -15 0 -21 -12 -19 -33 5 -9 11 -21 20 -26 20 -5 0 -13 -9
-16 -20 -8 -25 -17 -25 -33 0 -10 17 -15 18 -32 8 -16 -10 -24 -10 -41 0 -18
12 -23 10 -40 -9 -16 -19 -19 -20 -25 -5 -8 20 -44 21 -44 1 0 -21 -13 -19
-28 5 -17 27 -31 25 -43 -7 -11 -27 -11 -27 -19 -7 -12 31 -38 37 -51 12 -11
-20 -13 -20 -24 -5 -17 24 -75 23 -76 0 0 -15 -2 -15 -9 2 -5 11 -9 23 -9 28
-1 4 384 7 855 7 567 0 853 -3 849 -10z m-2215 -25 c11 -13 7 -15 -34 -14 -44
2 -54 8 -39 22 12 13 60 7 73 -8z m2870 0 c0 -8 -4 -15 -10 -15 -5 0 -10 7
-10 15 0 8 5 15 10 15 6 0 10 -7 10 -15z m-1960 -15 c0 -5 -2 -10 -4 -10 -3 0
-8 5 -11 10 -3 6 -1 10 4 10 6 0 11 -4 11 -10z m-965 -50 c-3 -5 -22 -10 -41
-10 -19 0 -34 5 -34 10 0 6 18 10 41 10 24 0 38 -4 34 -10z m2375 0 c0 -5 -2
-10 -4 -10 -3 0 -8 5 -11 10 -3 6 -1 10 4 10 6 0 11 -4 11 -10z m2510 -93 c0
-17 -310 -384 -442 -524 -48 -51 -58 -67 -55 -90 3 -25 9 -29 51 -35 100 -14
175 -104 176 -208 0 -49 -19 -91 -64 -142 -128 -144 -277 -293 -308 -309 -73
-37 -194 -13 -233 47 l-17 26 -25 -24 c-24 -22 -31 -23 -216 -26 -220 -4 -259
3 -283 49 -28 55 -14 78 164 266 92 96 171 182 175 190 15 25 -30 63 -75 63
-68 0 -157 100 -144 163 6 27 -1 37 -59 97 -35 37 -69 79 -75 94 -14 38 -1 83
32 111 29 24 30 24 238 24 191 -1 212 -3 234 -20 24 -19 25 -19 60 2 35 20 46
21 301 18 l264 -4 62 73 c34 40 60 75 57 77 -3 3 -1454 4 -3226 3 l-3221 -3
170 -215 c94 -118 181 -226 194 -239 l23 -23 168 147 c254 223 222 205 383
205 119 0 140 -3 166 -20 24 -16 47 -20 123 -20 50 0 92 -4 92 -9 0 -5 -35
-41 -77 -80 l-77 -71 -62 60 -62 60 -106 0 -105 0 -88 -76 c-48 -42 -178 -153
-288 -248 -110 -95 -206 -180 -213 -188 -9 -12 -10 -23 -2 -43 10 -26 223
-258 412 -447 l97 -98 338 -2 338 -3 3 -172 2 -173 1795 0 1795 0 0 170 c0
168 0 170 23 175 12 2 199 6 415 7 l392 3 0 -47 0 -48 -367 -2 -368 -3 -5
-155 -5 -155 -35 -17 c-33 -17 -142 -18 -1843 -18 -1957 0 -1869 -2 -1882 52
-3 13 -6 84 -8 158 l-2 135 -310 3 -310 2 -43 43 c-130 125 -513 541 -518 563
-4 14 -4 44 -1 67 5 37 15 51 82 113 l77 71 -246 309 c-135 170 -246 311 -246
314 0 3 1532 5 3405 5 1873 0 3405 -4 3405 -8z m-4620 -324 c0 -1 -11 -13 -25
-27 -14 -14 -25 -32 -25 -39 0 -8 31 -77 69 -153 l69 -139 71 144 c39 79 71
149 71 156 0 7 -8 23 -19 36 l-19 24 239 0 238 0 -23 -25 c-36 -39 -83 -116
-210 -352 l-118 -218 152 -287 c84 -159 163 -302 176 -320 13 -17 24 -34 24
-37 0 -3 -90 -6 -200 -6 l-200 0 -94 187 -93 188 -35 -70 c-44 -87 -88 -198
-88 -220 0 -9 14 -30 30 -47 17 -16 30 -31 30 -34 0 -2 -119 -4 -265 -4 l-265
0 38 38 c25 26 81 124 175 309 75 149 137 278 137 286 0 9 -35 80 -78 159 -43
79 -107 196 -142 261 -35 64 -78 134 -95 155 l-32 37 253 0 c140 0 254 -1 254
-2z m1210 -2 c0 -2 -13 -19 -30 -38 l-30 -34 0 -216 c0 -119 2 -214 4 -212 8
9 239 413 260 455 l23 46 174 -2 c95 0 175 -3 177 -5 3 -2 -20 -44 -51 -92
-55 -88 -199 -332 -253 -431 l-29 -53 29 -52 c16 -29 70 -128 121 -222 50 -93
109 -201 130 -240 21 -38 48 -84 61 -102 13 -17 24 -34 24 -37 0 -3 -87 -6
-194 -6 l-194 0 -117 225 -117 225 -24 -48 c-22 -43 -24 -59 -24 -190 l0 -144
30 -30 c17 -16 30 -31 30 -34 0 -2 -115 -4 -255 -4 -163 0 -255 4 -255 10 0 6
5 10 10 10 6 0 22 12 35 26 l25 27 0 548 0 549 -34 37 -34 38 254 0 c140 0
254 -2 254 -4z m1135 -21 c-13 -14 -29 -38 -34 -53 -12 -31 -13 -188 -2 -330
l6 -88 128 216 c90 155 127 226 127 248 l0 32 210 0 c189 0 237 -5 197 -21 -8
-3 -34 -33 -59 -67 -44 -60 -294 -465 -305 -493 -3 -7 38 -91 90 -186 52 -95
122 -224 156 -287 34 -63 73 -130 87 -150 l24 -36 -187 -3 c-141 -2 -190 1
-199 10 -6 7 -60 108 -119 223 -60 116 -109 212 -111 213 -1 2 -14 -19 -28
-47 -24 -46 -26 -61 -26 -175 0 -137 8 -170 48 -203 l27 -22 -262 -1 c-169 0
-263 4 -263 10 0 6 5 10 10 10 6 0 22 12 35 26 l25 27 0 547 0 546 -34 40 -33
39 258 0 258 0 -24 -25z m-3321 -44 c20 -23 36 -48 36 -54 0 -6 14 -28 32 -49
l32 -38 -40 38 c-22 20 -43 37 -47 37 -14 0 -6 -24 16 -49 l22 -25 -29 22
c-30 23 -51 20 -41 -5 5 -14 3 -14 -12 -2 -15 13 -16 12 -10 -10 4 -18 3 -21
-6 -12 -18 18 -29 13 -17 -9 11 -20 -3 -30 -15 -10 -3 6 -11 10 -16 10 -6 0 0
-15 12 -32 20 -29 21 -31 3 -15 -24 20 -39 23 -28 5 5 -9 2 -9 -9 1 -24 19
-23 -5 1 -33 17 -20 17 -21 -3 -5 -59 47 -61 26 -2 -39 l42 -47 -49 43 c-27
23 -52 42 -57 42 -11 0 -3 -47 12 -67 7 -10 -2 -4 -20 12 -31 28 -33 28 -27 8
8 -25 -3 -30 -22 -11 -17 17 -16 -9 3 -47 l15 -30 -23 28 c-24 29 -43 36 -34
13 8 -20 -4 -28 -20 -15 -16 14 -17 5 -3 -22 7 -11 7 -19 1 -19 -5 0 -11 5
-13 12 -8 23 -30 -4 -25 -31 l5 -26 -19 24 c-19 23 -19 23 -19 2 0 -12 -4 -20
-9 -17 -14 9 -32 -20 -25 -40 5 -15 4 -16 -5 -4 -5 8 -13 11 -17 7 -4 -4 10
-23 32 -42 21 -19 34 -34 28 -35 -5 0 -23 14 -39 30 -32 33 -51 39 -41 14 6
-14 4 -15 -10 -4 -13 12 -17 11 -24 0 -6 -10 -2 -23 13 -40 l22 -25 -25 22
c-21 19 -29 20 -40 10 -8 -7 -12 -8 -7 -3 4 6 7 17 7 25 -1 13 -2 13 -11 -1
-10 -17 -32 -26 -27 -10 3 7 -36 50 -49 55 -5 1 -7 6 -5 10 1 4 -7 3 -17 -3
-36 -18 -35 10 0 47 l34 36 -56 -42 c-31 -22 -61 -41 -67 -41 -30 0 -5 33 79
106 51 43 164 142 253 219 210 183 197 175 278 175 67 0 67 0 102 -44z m299
-220 c4 -10 -61 -74 -195 -193 -276 -243 -378 -333 -416 -365 -38 -32 -39 -38
-7 -68 13 -12 22 -27 19 -32 -7 -11 -84 60 -84 77 0 5 46 51 103 102 345 310
553 492 563 492 7 1 14 -5 17 -13z m-332 -33 c13 -16 12 -17 -3 -4 -10 7 -18
15 -18 17 0 8 8 3 21 -13z m-160 -80 c13 -16 12 -17 -3 -4 -10 7 -18 15 -18
17 0 8 8 3 21 -13z m4345 -27 c44 -44 45 -83 5 -128 -24 -27 -36 -33 -70 -33
-79 0 -127 89 -81 148 45 56 98 61 146 13z m-4405 -33 c13 -16 12 -17 -3 -4
-10 7 -18 15 -18 17 0 8 8 3 21 -13z m648 5 c0 -15 -603 -558 -618 -558 -24 0
-6 23 82 103 279 255 519 467 528 467 5 0 9 -6 8 -12z m-1062 -80 c0 -13 -1
-17 -4 -10 -3 6 -10 9 -16 5 -7 -4 -6 1 2 10 17 21 17 21 18 -5z m304 5 c13
-16 12 -17 -3 -4 -10 7 -18 15 -18 17 0 8 8 3 21 -13z m686 -175 c5 13 33 17
33 4 0 -4 -5 -13 -11 -19 -8 -8 -8 -17 1 -33 14 -27 6 -37 -15 -20 -12 10 -19
10 -27 2 -7 -7 -18 -12 -25 -12 -10 0 -11 4 -1 19 9 15 9 26 1 44 -15 32 -5
42 20 20 15 -13 21 -15 24 -5z"/>
<path d="M3985 6735 c-11 -42 -35 -88 -54 -102 -9 -6 -34 -17 -56 -23 l-40
-13 43 -12 c58 -18 78 -37 98 -99 l18 -51 8 38 c12 58 35 85 90 105 54 20 54
23 -5 42 -42 13 -63 39 -82 102 l-13 43 -7 -30z"/>
<path d="M5347 6750 c-3 -8 -8 -28 -12 -44 -8 -38 -56 -85 -94 -92 -41 -9 -39
-22 4 -30 44 -8 78 -42 95 -96 l13 -43 14 40 c20 59 37 76 94 95 54 19 54 21
-2 39 -46 15 -65 36 -89 97 -11 30 -20 43 -23 34z"/>
<path d="M3587 5600 c-3 -12 -14 -20 -26 -20 -12 0 -21 -4 -21 -10 0 -5 9 -10
21 -10 12 0 23 -8 26 -20 3 -11 9 -20 13 -20 4 0 10 9 13 20 3 12 14 20 26 20
12 0 21 5 21 10 0 6 -9 10 -21 10 -12 0 -23 8 -26 20 -3 11 -9 20 -13 20 -4 0
-10 -9 -13 -20z"/>
<path d="M2352 5223 c-14 -45 -24 -56 -67 -70 l-30 -10 38 -16 c28 -12 43 -27
57 -59 16 -35 20 -39 25 -23 15 49 33 71 65 81 l35 12 -37 17 c-27 14 -42 30
-55 63 l-19 45 -12 -40z"/>
<path d="M6355 5198 c-9 -47 -45 -87 -87 -95 l-32 -6 42 -18 c43 -19 81 -67
83 -104 0 -12 10 1 23 31 20 42 31 54 67 69 l44 18 -30 10 c-33 11 -75 45 -75
61 -1 6 -7 25 -14 41 l-13 30 -8 -37z"/>
<path d="M6742 5156 c-10 -26 -22 -38 -47 -48 l-35 -12 33 -11 c21 -6 38 -22
48 -43 l17 -33 10 30 c7 20 23 35 44 44 l33 14 -28 8 c-21 5 -34 19 -46 47
l-16 40 -13 -36z"/>
<path d="M7040 5068 c-12 -35 -23 -47 -58 -64 l-43 -20 40 -13 c40 -12 71 -49
71 -86 0 -8 5 -15 10 -15 6 0 10 7 10 15 0 38 31 74 71 87 l42 12 -41 17 c-40
17 -72 59 -72 94 0 29 -16 15 -30 -27z"/>
<path d="M2572 5071 c-8 -21 -18 -31 -31 -31 -12 0 -21 -7 -21 -15 0 -9 9 -15
24 -15 18 0 25 -7 31 -32 l7 -33 14 33 c9 21 21 32 34 32 27 0 25 28 -2 32
-13 2 -24 11 -26 23 -7 35 -19 37 -30 6z"/>
<path d="M3136 4983 c-3 -3 -6 -14 -6 -24 0 -11 -10 -21 -25 -25 -30 -7 -33
-24 -4 -24 14 0 24 -10 31 -32 l12 -33 13 33 c9 21 20 32 33 32 28 0 25 17 -5
24 -16 4 -25 13 -25 26 0 20 -13 33 -24 23z"/>
<path d="M4067 5623 c-4 -3 -7 -15 -7 -25 0 -12 -12 -24 -30 -32 -32 -13 -30
-26 2 -26 12 0 23 -11 30 -31 l11 -31 13 31 c10 23 19 31 39 31 33 0 32 16 -1
24 -15 4 -30 18 -38 37 -7 16 -15 26 -19 22z"/>
<path d="M5326 5605 c-4 -16 -13 -25 -26 -25 -11 0 -20 -4 -20 -10 0 -5 9 -10
21 -10 12 0 23 -8 26 -20 3 -11 9 -20 13 -20 4 0 10 9 13 20 3 11 12 20 21 20
9 0 16 5 16 10 0 6 -7 10 -15 10 -9 0 -20 11 -25 25 -5 14 -11 25 -14 25 -2 0
-7 -11 -10 -25z"/>
<path d="M4625 5904 c-16 -8 -38 -23 -49 -32 -27 -25 -56 -91 -56 -132 0 -41
29 -108 56 -132 59 -52 160 -59 226 -14 39 25 78 97 78 143 0 39 -23 99 -48
126 -47 53 -147 72 -207 41z m164 -31 c56 -42 83 -114 67 -177 -18 -70 -113
-126 -190 -112 -101 19 -157 144 -105 235 49 86 152 110 228 54z"/>
<path d="M4645 5861 c-54 -24 -75 -58 -75 -122 0 -47 4 -55 40 -91 39 -39 42
-40 97 -36 49 4 60 9 90 41 28 31 33 44 33 84 0 60 -29 109 -75 129 -44 18
-61 18 -110 -5z m106 -92 l-23 -31 26 -27 c14 -15 26 -30 26 -34 0 -16 -36 -5
-60 18 l-26 25 -14 -25 c-14 -26 -50 -35 -50 -12 0 8 9 22 20 32 11 10 20 23
20 30 0 7 -9 20 -20 30 -11 10 -20 22 -20 27 0 16 32 7 50 -14 l19 -23 28 27
c37 37 56 20 24 -23z"/>
<path d="M3038 4243 c7 -3 16 -2 19 1 4 3 -2 6 -13 5 -11 0 -14 -3 -6 -6z"/>
<path d="M4361 3500 l-254 -5 -70 -78 c-39 -42 -67 -81 -63 -85 11 -11 1466
-15 1466 -4 0 5 -29 48 -65 95 l-66 87 -347 -2 c-191 -1 -461 -5 -601 -8z"/>
<path d="M7000 3383 c-55 -49 -56 -141 -4 -182 37 -29 70 -26 104 7 50 51 52
133 3 178 -34 31 -66 30 -103 -3z m84 -22 c3 -4 -6 -6 -19 -3 -14 2 -25 6 -25
8 0 8 39 4 44 -5z m-19 -61 c-27 -12 -35 -12 -35 0 0 6 12 10 28 9 24 0 25 -1
7 -9z"/>
<path d="M6790 2707 c0 -7 16 -29 36 -48 20 -18 58 -60 85 -91 49 -56 50 -57
33 -82 -19 -31 -14 -49 22 -72 26 -18 27 -17 46 6 l19 23 79 -78 79 -78 -29
-36 c-27 -34 -111 -127 -282 -310 -43 -46 -78 -88 -78 -92 0 -5 79 -9 175 -9
96 0 175 4 175 9 0 5 -26 28 -57 51 -32 24 -60 45 -62 46 -2 2 37 47 87 101
49 54 101 112 115 128 l26 30 63 -62 62 -63 -36 -37 c-47 -50 -58 -73 -58
-126 0 -52 27 -93 76 -113 63 -26 80 -14 251 170 153 166 158 172 158 214 0
38 -5 48 -39 79 -35 32 -42 35 -85 30 -42 -4 -52 -11 -113 -78 l-68 -74 -65
65 c-36 35 -65 69 -65 75 1 16 115 136 123 129 10 -11 9 -79 -3 -108 -12 -34
-7 -33 40 7 39 31 40 33 40 100 l0 68 101 109 c55 61 97 114 94 120 -4 6 -87
10 -220 10 -183 0 -216 -2 -230 -16 -13 -13 -13 -19 -3 -33 23 -28 30 -30 135
-24 69 4 103 3 103 -4 0 -6 -15 -24 -34 -41 l-34 -30 -49 24 c-45 22 -113 32
-113 17 0 -4 22 -30 50 -58 l49 -50 -64 -70 -64 -70 -92 91 -92 92 42 37 c22
21 41 44 41 51 0 8 5 23 12 33 9 15 9 23 -1 35 -20 23 -48 19 -67 -9 -13 -20
-25 -25 -57 -25 -27 0 -50 8 -73 25 -28 22 -43 25 -108 25 -56 0 -76 -3 -76
-13z m905 -492 c14 -13 25 -30 25 -37 0 -21 -29 -57 -115 -143 -44 -45 -100
-104 -125 -133 -50 -57 -77 -65 -110 -32 -44 44 -31 67 126 224 80 80 153 146
161 146 7 0 25 -11 38 -25z"/>
<path d="M7518 2066 c-71 -73 -128 -139 -128 -148 0 -9 7 -22 16 -29 18 -15
25 -8 211 198 63 70 77 106 43 109 -8 1 -72 -58 -142 -130z m92 31 c0 -1 -39
-41 -87 -87 -76 -74 -79 -76 -29 -20 66 73 116 119 116 107z"/>
<path d="M7201 2039 c-24 -27 -39 -49 -33 -49 5 0 29 23 52 50 54 64 39 63
-19 -1z"/>
<path d="M6582 2258 c-37 -37 12 -113 57 -88 35 18 45 48 26 76 -17 26 -62 33
-83 12z"/>
</g>
</svg>
