<?xml version="1.0" standalone="no"?>
<!DOCTYPE svg PUBLIC "-//W3C//DTD SVG 20010904//EN"
 "http://www.w3.org/TR/2001/REC-SVG-20010904/DTD/svg10.dtd">
<svg version="1.0" xmlns="http://www.w3.org/2000/svg"
 width="512.000000pt" height="512.000000pt" viewBox="0 0 512.000000 512.000000"
 preserveAspectRatio="xMidYMid meet">

<g transform="translate(0.000000,512.000000) scale(0.100000,-0.100000)"
fill="#000000" stroke="none">
<path d="M3437 5011 c-66 -65 -121 -111 -133 -111 -12 0 -560 -541 -1540
-1522 -1162 -1164 -1531 -1539 -1566 -1593 -261 -401 -262 -894 -3 -1280 l58
-86 -105 -107 c-118 -120 -128 -134 -128 -191 0 -31 7 -46 31 -70 26 -26 38
-31 81 -31 l50 0 119 116 118 117 87 -58 c340 -226 782 -256 1139 -78 167 84
167 84 1296 1210 l1085 1084 13 -168 c7 -92 15 -174 17 -181 2 -8 -19 6 -46
30 -96 82 -111 90 -159 85 -36 -4 -52 -14 -98 -58 -30 -30 -66 -73 -79 -96
-14 -23 -34 -45 -44 -48 -26 -8 -148 -150 -156 -181 -4 -14 0 -99 8 -189 l14
-163 -36 28 c-19 15 -44 38 -55 50 -29 32 -69 50 -112 50 -33 0 -45 -8 -110
-74 -46 -47 -75 -86 -79 -105 -4 -20 -15 -33 -34 -41 -35 -14 -158 -152 -166
-186 -4 -16 6 -75 26 -150 18 -68 30 -127 27 -130 -3 -3 -63 4 -133 17 -126
23 -127 23 -162 3 -20 -10 -64 -52 -99 -91 -59 -68 -63 -76 -63 -122 0 -42 5
-54 30 -79 25 -26 44 -33 127 -47 230 -41 405 -74 408 -77 1 -2 31 -111 66
-243 l64 -240 116 -3 117 -3 41 50 c23 28 46 63 50 79 8 26 -6 95 -55 269 -8
29 7 30 146 3 58 -12 119 -18 136 -15 38 7 165 135 188 189 8 19 23 37 33 40
23 7 127 123 144 159 7 15 9 41 5 61 -7 36 -19 51 -129 155 -37 35 -66 65 -63
68 2 2 78 -3 169 -11 267 -26 249 -29 332 58 247 258 262 279 251 341 -6 31
-26 55 -102 128 -52 49 -93 92 -91 94 2 2 79 -3 171 -12 249 -23 248 -23 303
27 25 24 63 65 85 91 48 62 53 118 12 166 -32 38 -63 46 -239 61 -169 14 -329
29 -371 35 l-30 5 -23 223 c-12 122 -25 234 -28 249 -8 40 -54 79 -103 85
l-42 6 341 342 c207 207 341 349 341 360 0 11 49 68 111 132 110 111 112 113
106 150 -8 47 -38 73 -84 73 -31 0 -47 -11 -128 -91 l-93 -90 -41 40 c-22 22
-41 43 -41 45 0 3 41 46 90 96 79 80 90 95 90 126 0 48 -37 84 -85 84 -32 0
-47 -11 -131 -92 l-95 -92 -40 44 -40 43 91 92 c80 83 90 96 90 129 0 48 -36
86 -81 86 -27 0 -47 -15 -125 -92 -103 -100 -93 -98 -157 -34 l-29 29 92 92
c72 72 91 98 92 121 1 41 -16 69 -52 84 -44 18 -73 2 -165 -90 -44 -44 -83
-80 -86 -80 -9 0 -79 70 -79 78 0 3 38 44 84 92 89 91 104 118 87 163 -12 31
-69 61 -98 51 -10 -4 -59 -47 -109 -96 l-91 -90 -29 29 c-64 64 -66 54 34 157
77 78 92 98 92 125 0 45 -38 81 -86 81 -33 0 -46 -10 -129 -91 l-92 -90 -43
41 -42 41 91 94 c80 83 91 98 91 130 0 45 -37 85 -77 85 -37 0 -66 -21 -152
-107 -39 -40 -73 -73 -76 -73 -2 0 -22 19 -45 41 l-41 41 90 93 c80 81 91 97
91 128 0 46 -26 76 -73 84 -37 6 -39 4 -150 -106z m1128 -1741 l-65 -65 -647
647 -648 648 65 65 65 65 647 -647 648 -648 -65 -65z m-1403 953 c60 -59 108
-112 108 -118 0 -5 -153 -163 -340 -350 -231 -232 -343 -350 -348 -370 -5 -17
-5 -43 -1 -60 12 -42 702 -732 744 -743 17 -5 44 -5 60 -1 21 6 135 114 370
349 187 187 344 340 350 340 6 0 61 -51 123 -113 l112 -112 -1308 -1306
c-1397 -1396 -1366 -1367 -1538 -1439 -127 -53 -247 -73 -389 -66 -131 6 -194
19 -300 61 -121 48 -196 96 -293 189 -96 91 -159 182 -212 307 -54 127 -65
189 -64 359 1 138 4 165 27 243 30 99 71 183 130 272 40 61 2632 2665 2652
2665 5 0 58 -48 117 -107z m533 -533 l250 -250 -113 -112 -112 -113 -252 252
-253 253 110 110 c60 60 112 110 115 110 3 0 118 -113 255 -250z m-125 -625
l-30 -30 -252 252 -252 252 29 31 29 31 253 -253 253 -253 -30 -30z m-403 103
c134 -134 243 -247 243 -252 0 -6 -12 -23 -27 -38 l-27 -29 -253 253 -253 252
27 28 c15 15 31 28 37 28 6 0 120 -109 253 -242z m1114 -1000 l23 -237 40 -6
c23 -3 169 -17 326 -31 157 -14 287 -28 290 -30 2 -3 -19 -28 -48 -57 l-52
-51 -252 22 c-139 12 -262 22 -273 22 -19 0 -20 -5 -17 -77 4 -88 -9 -71 164
-229 l78 -70 -43 -48 -42 -48 -345 316 c-190 174 -345 320 -345 324 0 5 17 28
38 52 l37 44 28 -26 c239 -220 307 -279 310 -266 1 8 -9 132 -23 276 -33 347
-35 323 22 384 l48 50 6 -38 c4 -22 17 -146 30 -276z m-560 -610 l23 -237 41
-6 c22 -3 168 -17 325 -31 157 -14 287 -28 289 -30 3 -3 -18 -28 -47 -57 l-52
-52 -232 22 c-128 12 -251 22 -273 22 l-40 1 3 -77 c4 -88 -9 -71 164 -229
l78 -70 -43 -48 -42 -48 -271 249 c-148 136 -305 280 -349 319 l-78 71 38 47
c22 25 42 46 45 46 3 0 79 -68 170 -150 141 -128 165 -147 168 -128 1 13 -10
150 -26 306 l-28 283 50 56 51 56 6 -39 c4 -21 17 -146 30 -276z m317 12 c105
-96 190 -175 189 -176 -3 -3 -307 25 -343 31 l-31 5 -12 123 c-6 67 -14 142
-18 166 -5 37 -3 42 9 35 9 -5 101 -88 206 -184z m-848 -596 c38 -141 74 -260
80 -264 6 -3 124 -26 263 -50 138 -24 260 -46 269 -49 14 -5 8 -16 -34 -59
l-50 -53 -193 36 c-106 19 -202 35 -213 35 -18 0 -15 -14 34 -192 29 -106 53
-202 54 -213 0 -12 -21 -42 -48 -68 l-48 -48 -72 273 c-40 149 -73 272 -75
273 -1 1 -121 22 -265 47 -145 26 -266 49 -270 53 -3 3 16 28 44 56 l50 49
207 -38 c114 -21 207 -37 207 -35 0 2 -25 93 -56 204 -46 167 -53 203 -43 217
24 32 83 92 86 88 3 -2 35 -120 73 -262z m314 -38 c108 -98 196 -180 194 -181
-6 -6 -332 55 -338 62 -4 5 -24 71 -44 148 -21 77 -40 148 -43 159 -5 17 -3
17 15 5 10 -8 108 -94 216 -193z"/>
<path d="M2477 2799 c-21 -5 -57 -22 -80 -38 -74 -52 -653 -642 -678 -691 -49
-98 -23 -228 63 -305 52 -48 100 -67 168 -69 114 -2 123 5 478 358 336 333
363 367 377 458 17 116 -69 248 -184 282 -60 18 -87 19 -144 5z m127 -187 c47
-42 40 -105 -17 -160 l-33 -32 -67 68 -67 68 32 31 c57 55 109 63 152 25z
m-234 -247 l65 -66 -216 -214 c-212 -212 -216 -215 -258 -215 -58 0 -91 33
-91 92 0 41 3 45 212 255 117 117 215 213 218 213 3 0 35 -29 70 -65z"/>
</g>
</svg>
